<svg height="512pt" viewBox="0 0 512.00157 512" width="512pt" xmlns="http://www.w3.org/2000/svg"><path d="m500.394531 215.234375c-2.105469-4.738281-5.292969-8.914063-9.300781-12.203125l-55.894531-49.664062-95.828125-85.160157-56.148438-49.921875c-15.800781-13.054687-38.644531-13.054687-54.445312 0l-56.148438 49.921875-95.828125 85.160157-55.894531 49.664062c-7.769531 6.53125-12.289062 16.132812-12.371094 26.285156v239.957032c.027344 18.839843 15.292969 34.105468 34.132813 34.132812h426.664062c8.503907-.011719 16.695313-3.210938 22.957031-8.960938 7.152344-6.40625 11.222657-15.570312 11.179688-25.171874v-239.957032c.027344-4.863281-1.023438-9.671875-3.074219-14.082031zm0 0" fill="#f29c1f"/><path d="m500.394531 215.234375-65.195312 41.300781-134.144531 84.90625-31.484376-25.171875c-12.789062-10.25-31.0625-9.964843-43.523437.683594l-28.585937 24.488281-120.660157-81.917968-65.195312-44.203126c2.078125-4.78125 5.265625-8.992187 9.300781-12.289062l55.894531-49.664062 95.828125-85.160157 56.148438-49.921875c15.800781-13.054687 38.644531-13.054687 54.445312 0l56.148438 49.921875 95.828125 85.160157 55.894531 49.664062c4.007812 3.289062 7.195312 7.464844 9.300781 12.203125zm0 0" fill="#fec108"/><path d="m435.199219 380.953125v-287.148437c0-14.136719-11.460938-25.597657-25.597657-25.597657h-307.199218c-14.140625 0-25.601563 11.460938-25.601563 25.597657v290.132812zm0 0" fill="#f5f5f5"/><path d="m503.46875 229.316406v239.957032c.042969 9.601562-4.027344 18.765624-11.179688 25.171874l-16.554687-13.226562-174.679687-139.777344 134.144531-84.90625 42.667969-27.050781 22.527343-14.25c2.050781 4.410156 3.101563 9.21875 3.074219 14.082031zm0 0" fill="#d84315"/><path d="m477.867188 229.484375v239.789063c0 4.074218-.722657 8.121093-2.132813 11.945312l-174.679687-139.777344 134.144531-84.90625zm0 0" fill="#f57c00"/><path d="m492.289062 494.445312c-6.261718 5.75-14.453124 8.949219-22.957031 8.960938h-426.664062c-8.652344-.007812-16.980469-3.304688-23.296875-9.21875l178.089844-152.746094 28.585937-24.488281c12.460937-10.648437 30.734375-10.933594 43.523437-.683594l31.484376 25.171875zm0 0" fill="#ff5722"/><path d="m197.460938 341.441406-178.089844 152.746094c-6.910156-6.441406-10.835938-15.464844-10.835938-24.914062v-239.957032c-.019531-4.835937 1.027344-9.613281 3.070313-13.996094l65.195312 44.203126zm0 0" fill="#f57c00"/><path d="m496.761719 196.648438-53.027344-47.113282v-55.730468c0-18.851563-15.28125-34.132813-34.132813-34.132813h-66.988281l-53.957031-47.957031c-19.054688-15.691406-46.582031-15.609375-65.542969.195312l-53.726562 47.761719h-66.984375c-18.851563 0-34.136719 15.28125-34.136719 34.132813v55.730468l-52.742187 46.867188c-5.027344 4.105468-9.015626 9.34375-11.640626 15.28125-2.585937 5.515625-3.9101558 11.539062-3.882812 17.632812v239.957032c.0703125 11.390624 4.675781 22.28125 12.800781 30.265624.050781.058594.058594.144532.121094.207032.058594.058594.132813.09375.195313.160156.058593.070312.289062.367188.46875.53125 7.886718 7.375 18.28125 11.484375 29.082031 11.5h426.664062c10.59375.011719 20.804688-3.945312 28.621094-11.09375.308594-.261719.523437-.613281.8125-.851562.050781-.058594.136719-.085938.195313-.152344.058593-.070313 0-.09375.070312-.136719 8.289062-7.953125 12.972656-18.945313 12.96875-30.429687v-239.957032c.046875-6.035156-1.246094-12.003906-3.78125-17.476562-2.589844-5.886719-6.511719-11.085938-11.457031-15.191406zm-1.828125 32.667968v239.957032c-.027344 4.695312-1.367188 9.289062-3.867188 13.269531l-175.332031-140.28125 124.046875-78.507813c.0625 0 .09375-.085937.148438-.117187l54.96875-34.800781c-.015626.152343.035156.308593.035156.480468zm-9.300782-19.730468c1.054688.9375 2.03125 1.953124 2.925782 3.046874l-44.824219 28.382813v-68.652344zm-251.417968-184.722657c12.550781-10.394531 30.699218-10.46875 43.332031-.179687l39.382813 34.988281h-121.855469zm-148.882813 68.941407c0-9.425782 7.644531-17.066407 17.070313-17.066407h307.199218c9.425782 0 17.066407 7.640625 17.066407 17.066407v158.011718l-110.492188 69.972656-14.503906 9.207032-26.734375-21.332032c-9.734375-7.785156-22.378906-10.945312-34.628906-8.652343-7.320313 1.367187-14.140625 4.652343-19.773438 9.523437l-23.636718 20.242188-111.566407-75.777344zm-64.75 388.105468c-2.253906-3.832031-3.46875-8.191406-3.515625-12.636718v-239.933594l166.402344 112.90625zm47.683594-309.539062v71.082031l-45.0625-30.574219c1.023437-1.261718 2.167969-2.421875 3.414063-3.464844zm-25.597656 322.5c-3.085938-.011719-6.144531-.589844-9.019531-1.707032l197.972656-169.761718c9.339844-7.992188 23.046875-8.191406 32.613281-.476563l213.164063 170.519531c-2.59375.914063-5.316407 1.398438-8.066407 1.425782zm0 0"/><path d="m162.132812 213.273438h170.667969c14.136719 0 25.601563-11.464844 25.601563-25.601563s-11.464844-25.601563-25.601563-25.601563h-162.132812c-4.714844 0-8.535157 3.820313-8.535157 8.535157 0 4.710937 3.820313 8.53125 8.535157 8.53125h162.132812c4.710938 0 8.53125 3.824219 8.53125 8.535156s-3.820312 8.535156-8.53125 8.535156h-170.667969c-14.136718 0-25.597656-11.464843-25.597656-25.601562 0-14.140625 11.460938-25.601563 25.597656-25.601563h170.667969c23.5625 0 42.667969 19.105469 42.667969 42.667969s-19.105469 42.667969-42.667969 42.667969h-170.667969c-4.710937 0-8.53125 3.820312-8.53125 8.53125 0 4.714844 3.820313 8.535156 8.53125 8.535156h170.667969c32.988281 0 59.734375-26.746094 59.734375-59.734375s-26.746094-59.734375-59.734375-59.734375h-170.667969c-23.5625 0-42.664062 19.105469-42.664062 42.667969s19.101562 42.667969 42.664062 42.667969zm0 0"/></svg>