<svg id="e6bfkv5zfssg1" xmlns="http://www.w3.org/2000/svg" xmlns:xlink="http://www.w3.org/1999/xlink" viewBox="0 0 517.600000 517.600000" shape-rendering="geometricPrecision" text-rendering="geometricPrecision"><style><![CDATA[#e6bfkv5zfssg7_to {animation: e6bfkv5zfssg7_to__to 3000ms linear 1 normal forwards}@keyframes e6bfkv5zfssg7_to__to { 0% {transform: translate(50px,604px)} 20% {transform: translate(50px,271.534398px)} 100% {transform: translate(50px,271.534398px)} }#e6bfkv5zfssg9_ts {animation: e6bfkv5zfssg9_ts__ts 3000ms linear 1 normal forwards}@keyframes e6bfkv5zfssg9_ts__ts { 0% {transform: translate(359.199998px,316.800002px) scale(0.204447,0.194875)} 23.333333% {transform: translate(359.199998px,316.800002px) scale(0.204447,0.194875)} 36.666667% {transform: translate(359.199998px,316.800002px) scale(1.100268,1.217782)} 100% {transform: translate(359.199998px,316.800002px) scale(1.100268,1.217782)} }]]></style><polygon id="e6bfkv5zfssg2" points="248.400000,49.600000 248.400000,8 130.800000,8 130.800000,336.800000 506.800000,336.800000 506.800000,49.600000" fill="rgb(255,255,255)" stroke="none" stroke-width="1"/><polygon id="e6bfkv5zfssg3" points="162.800000,304.800000 162.800000,40 216.400000,40 216.400000,81.600000 474.800000,81.600000 474.800000,304.800000" fill="rgb(79,191,159)" stroke="none" stroke-width="1"/><g id="e6bfkv5zfssg4"><path id="e6bfkv5zfssg5" d="M10.800000,69.600000L89.200000,69.600000L89.200000,24C89.200000,15.200000,81.200000,8,70.800000,8L29.200000,8C18.800000,8,10.800000,15.200000,10.800000,24C10.800000,24,10.800000,69.600000,10.800000,69.600000Z" fill="rgb(255,255,255)" stroke="none" stroke-width="1"/><polygon id="e6bfkv5zfssg6" points="10.800000,69.600000 10.800000,448 50,504 89.200000,448 89.200000,69.600000" fill="rgb(255,255,255)" stroke="none" stroke-width="1"/></g><g id="e6bfkv5zfssg7_to" transform="translate(50,604)"><polygon id="e6bfkv5zfssg7" points="61.200000,439.200000 50,458.400000 38.800000,439.200000 38.800000,77.600000 61.200000,77.600000" transform="translate(-50,-268)" fill="rgb(241,96,81)" stroke="none" stroke-width="1"/></g><polygon id="e6bfkv5zfssg8" points="409.200000,129.600000 211.600000,129.600000 211.600000,504 506.800000,504 506.800000,227.200000" fill="rgb(255,255,255)" stroke="none" stroke-width="1"/><g id="e6bfkv5zfssg9_ts" transform="translate(359.199998,316.800002) scale(0.204447,0.194875)"><polygon id="e6bfkv5zfssg9" points="243.600000,472 243.600000,161.600000 395.600000,161.600000 474.800000,240.800000 474.800000,472" transform="translate(-359.200000,-316.800000)" fill="rgb(253,191,94)" stroke="none" stroke-width="1"/></g><polygon id="e6bfkv5zfssg10" points="395.600000,240.800000 474.800000,240.800000 395.600000,161.600000" fill="rgb(225,230,233)" stroke="none" stroke-width="1"/><g id="e6bfkv5zfssg11"><path id="e6bfkv5zfssg12" d="M256.400000,41.600000L256.400000,0L122.800000,0L122.800000,344L202.800000,344L202.800000,512L514.800000,512L514.800000,41.600000L256.400000,41.600000ZM498.800000,496L219.600000,496L219.600000,137.600000L406,137.600000L498.800000,230.400000L498.800000,496ZM498.800000,208L412.400000,121.600000L203.600000,121.600000L203.600000,328.800000L139.600000,328.800000L139.600000,16.800000L241.200000,16.800000L241.200000,58.400000L498.800000,58.400000L498.800000,208L498.800000,208Z" fill="rgb(25,54,81)" stroke="none" stroke-width="1"/><path id="e6bfkv5zfssg13" d="M70.800000,0L29.200000,0C14.800000,0,2.800000,11.200000,2.800000,24L2.800000,450.400000L50,517.600000L97.200000,450.400000L97.200000,24C97.200000,11.200000,85.200000,0,70.800000,0ZM81.200000,445.600000L50,490.400000L18.800000,445.600000L18.800000,77.600000L81.200000,77.600000L81.200000,445.600000ZM81.200000,61.600000L18.800000,61.600000L18.800000,24C18.800000,20,23.600000,16,29.200000,16L70.800000,16C76.400000,16,81.200000,20,81.200000,24L81.200000,61.600000Z" fill="rgb(25,54,81)" stroke="none" stroke-width="1"/><rect id="e6bfkv5zfssg14" width="16" height="16" rx="0" ry="0" transform="matrix(1 0 0 1 278 278.39999999999998)" fill="rgb(25,54,81)" stroke="none" stroke-width="1"/><rect id="e6bfkv5zfssg15" width="16" height="16" rx="0" ry="0" transform="matrix(1 0 0 1 345.19999999999999 278.39999999999998)" fill="rgb(25,54,81)" stroke="none" stroke-width="1"/><rect id="e6bfkv5zfssg16" width="16" height="16" rx="0" ry="0" transform="matrix(1 0 0 1 412.39999999999998 278.39999999999998)" fill="rgb(25,54,81)" stroke="none" stroke-width="1"/><rect id="e6bfkv5zfssg17" width="156.800000" height="16" rx="0" ry="0" transform="matrix(1 0 0 1 274.80000000000001 346.39999999999998)" fill="rgb(25,54,81)" stroke="none" stroke-width="1"/><rect id="e6bfkv5zfssg18" width="156.800000" height="16" rx="0" ry="0" transform="matrix(1 0 0 1 274.80000000000001 413.60000000000002)" fill="rgb(25,54,81)" stroke="none" stroke-width="1"/></g></svg>