<svg id="Capa_1" enable-background="new 0 0 512 512" height="512" viewBox="0 0 512 512" width="512" xmlns="http://www.w3.org/2000/svg"><g><path d="m32.262 316.202v-286.423c0-12.304 9.975-22.279 22.279-22.279h355.803c12.304 0 22.279 9.975 22.279 22.279v286.423z" fill="#365e7d"/><path d="m410.344 7.5h-6.414c.049.604.081 1.213.081 1.83v230.499c0 30.886-25.038 55.924-55.924 55.924h-315.825v20.449h400.361v-286.423c0-12.304-9.975-22.279-22.279-22.279z" fill="#2b4d66"/><path d="m60.875 36.112h343.136v251.478h-343.136z" fill="#bed8fb"/><path d="m377.879 36.112h26.132v247.277h-26.132z" fill="#9dc6fb"/><g><path d="m247.058 178.839h-89.231c-7.291 0-13.202-5.911-13.202-13.202v-44.467c0-25.379 20.574-45.954 45.954-45.954h23.729c25.379 0 45.954 20.574 45.954 45.954v44.467c-.002 7.291-5.912 13.202-13.204 13.202z" fill="#365e7d"/><path d="m214.307 75.216h-21.757c25.379 0 45.953 20.574 45.953 45.954v44.466c0 7.292-5.911 13.202-13.202 13.202h21.757c7.292 0 13.202-5.911 13.202-13.202v-44.466c0-25.38-20.574-45.954-45.953-45.954z" fill="#2b4d66"/><path d="m263.777 287.59v-44.175c0-26.823-21.744-48.567-48.567-48.567h-25.535c-26.823 0-48.567 21.744-48.567 48.567v44.175z" fill="#ffe07d"/><path d="m215.21 194.848h-23.593c26.823 0 48.567 21.744 48.567 48.567v44.175h23.593v-44.175c0-26.823-21.744-48.567-48.567-48.567z" fill="#ffd064"/><path d="m202.443 212.007c-22.451 0-40.651-18.2-40.651-40.651v-34.74c19.863-.378 37.378-3.227 48.679-12.613 8.86 9.099 19.693 13.402 32.622 12.613v34.74c0 22.451-18.2 40.651-40.65 40.651z" fill="#ffddce"/><path d="m243.093 136.616c-7.651.467-14.563-.864-20.772-3.903v38.643c0 18.861-12.846 34.716-30.265 39.307 3.316.874 6.796 1.344 10.386 1.344 22.451 0 40.651-18.2 40.651-40.651z" fill="#ffcbbe"/></g><path d="m322.577 426.978-23.345-13.478c-1.429-.825-2.309-2.35-2.309-4v-15.098c0-2.551-2.068-4.619-4.619-4.619h-161.657c-2.551 0-4.619 2.068-4.619 4.619v105.48c0 2.551 2.068 4.619 4.619 4.619h161.656c2.551 0 4.619-2.068 4.619-4.619v-47.424c0-1.65.88-3.175 2.309-4l23.346-13.479c3.079-1.778 3.079-6.223 0-8.001z" fill="#ffe07d"/><path d="m322.577 426.978-23.345-13.478c-1.429-.825-2.309-2.35-2.309-4v-15.099c0-2.551-2.068-4.619-4.619-4.619h-25.094c2.551 0 4.619 2.068 4.619 4.619v6.877c0 6.737 3.594 12.963 9.429 16.332l4.124 2.381c8.458 4.883 8.458 17.091 0 21.974l-4.125 2.381c-5.835 3.369-9.429 9.594-9.429 16.332v39.203c0 2.551-2.068 4.619-4.619 4.619h25.093c2.551 0 4.619-2.068 4.619-4.619v-47.424c0-1.65.88-3.175 2.309-4l23.345-13.479c3.081-1.777 3.081-6.222.002-8z" fill="#ffd064"/><g><path d="m305.977 134.588 23.345-13.479c1.429-.825 2.309-2.35 2.309-4v-45.098c0-2.551 2.068-4.619 4.619-4.619h161.656c2.551 0 4.619 2.068 4.619 4.619v105.48c0 2.551-2.068 4.619-4.619 4.619h-161.656c-2.551 0-4.619-2.068-4.619-4.619v-17.424c0-1.65-.88-3.175-2.309-4l-23.346-13.479c-3.079-1.778-3.079-6.222.001-8z" fill="#ffe07d"/><path d="m497.906 67.392h-24.168c2.551 0 4.619 2.068 4.619 4.619v105.48c0 2.551-2.068 4.619-4.619 4.619h24.168c2.551 0 4.619-2.068 4.619-4.619v-105.48c0-2.551-2.068-4.619-4.619-4.619z" fill="#ffd064"/></g><path d="m449.19 353.333h-431.203c-4.701 0-8.512-3.811-8.512-8.512v-20.107c0-4.701 3.811-8.512 8.512-8.512h431.203c4.701 0 8.512 3.811 8.512 8.512v20.107c0 4.702-3.811 8.512-8.512 8.512z" fill="#365e7d"/><path d="m449.19 316.202h-21.917c4.701 0 8.512 3.811 8.512 8.512v20.107c0 4.701-3.811 8.512-8.512 8.512h21.917c4.701 0 8.512-3.811 8.512-8.512v-20.107c0-4.701-3.811-8.512-8.512-8.512z" fill="#2b4d66"/><path d="m431.828 386.734c-24.235 0-43.881-19.646-43.881-43.881v-43.881h87.762v43.881c0 24.234-19.646 43.881-43.881 43.881z" fill="#ffddce"/><path d="m453.694 298.972v43.881c0 20.433-13.967 37.604-32.874 42.488 3.517.908 7.206 1.393 11.007 1.393 24.235 0 43.881-19.646 43.881-43.881v-43.881z" fill="#ffcbbe"/><path d="m491.34 504.473h-118.36c-6.545 0-11.85-5.306-11.85-11.85v-68.707c0-27.085 21.956-49.041 49.041-49.041h43.313c27.085 0 49.041 21.956 49.041 49.041v69.373c0 6.176-5.007 11.184-11.185 11.184z" fill="#4a80aa"/><path d="m453.484 374.874h-26.817c27.084 0 49.041 21.956 49.041 49.041v80.558h15.632c6.177 0 11.185-5.008 11.185-11.185v-69.373c0-27.085-21.956-49.041-49.041-49.041z" fill="#407093"/><path d="m482.039 327.534c-33.474 13.639-66.949 13.639-100.423 0-9.453-3.852-15.684-12.992-15.684-23.199v-25.911c0-28.755 23.311-52.066 52.066-52.066h27.659c28.755 0 52.066 23.311 52.066 52.066v25.911c0 10.208-6.231 19.348-15.684 23.199z" fill="#e27d47"/><path d="m497.723 278.425c0-28.755-23.311-52.066-52.066-52.066h-27.658c-.34 0-.674.019-1.012.026 28.286.541 51.054 23.624 51.054 52.04v25.911c0 10.208-6.231 19.347-15.684 23.199-11.79 4.804-23.58 7.879-35.37 9.299 21.684 2.612 43.369-.463 65.053-9.299 9.453-3.852 15.684-12.991 15.684-23.199v-25.911z" fill="#dd6938"/><g><path d="m162.203 441.689v10.903c0 4.143 3.358 7.5 7.5 7.5s7.5-3.357 7.5-7.5v-10.903c0-4.143-3.358-7.5-7.5-7.5s-7.5 3.358-7.5 7.5z"/><path d="m213.584 434.189c-4.142 0-7.5 3.357-7.5 7.5v10.903c0 4.143 3.358 7.5 7.5 7.5s7.5-3.357 7.5-7.5v-10.903c0-4.142-3.358-7.5-7.5-7.5z"/><path d="m264.965 452.593v-10.903c0-4.143-3.357-7.5-7.5-7.5-4.142 0-7.5 3.357-7.5 7.5v10.903c0 4.143 3.358 7.5 7.5 7.5s7.5-3.358 7.5-7.5z"/><path d="m326.327 420.483-21.904-12.646v-13.436c0-6.683-5.437-12.119-12.119-12.119h-161.657c-6.682 0-12.119 5.437-12.119 12.119v105.479c0 6.683 5.437 12.119 12.119 12.119h81.299c4.142 0 7.5-3.357 7.5-7.5s-3.358-7.5-7.5-7.5h-78.417v-99.718h155.894v12.219c0 4.315 2.321 8.337 6.059 10.495l19.023 10.983-19.024 10.984c-3.736 2.157-6.058 6.179-6.058 10.494v44.544h-47.49c-4.142 0-7.5 3.357-7.5 7.5s3.358 7.5 7.5 7.5h50.371c6.683 0 12.119-5.437 12.119-12.119v-45.761l21.903-12.646c3.738-2.157 6.061-6.179 6.061-10.495s-2.323-8.338-6.06-10.496z"/><path d="m367.084 119.299v10.903c0 4.143 3.357 7.5 7.5 7.5s7.5-3.357 7.5-7.5v-10.903c0-4.143-3.357-7.5-7.5-7.5s-7.5 3.357-7.5 7.5z"/><path d="m410.965 119.299v10.903c0 4.143 3.357 7.5 7.5 7.5s7.5-3.357 7.5-7.5v-10.903c0-4.143-3.357-7.5-7.5-7.5s-7.5 3.357-7.5 7.5z"/><path d="m454.845 119.299v10.903c0 4.143 3.357 7.5 7.5 7.5s7.5-3.357 7.5-7.5v-10.903c0-4.143-3.357-7.5-7.5-7.5s-7.5 3.357-7.5 7.5z"/><path d="m497.906 189.609c6.683 0 12.119-5.437 12.119-12.119v-105.479c0-6.683-5.437-12.119-12.119-12.119h-16.68c-4.143 0-7.5 3.357-7.5 7.5s3.357 7.5 7.5 7.5h13.799v99.718h-155.893v-14.543c0-4.316-2.322-8.338-6.06-10.495l-19.023-10.983 19.022-10.982c3.738-2.158 6.061-6.18 6.061-10.496v-42.219h112.107c4.143 0 7.5-3.357 7.5-7.5s-3.357-7.5-7.5-7.5h-11.116v-30.113c0-16.42-13.359-29.779-29.779-29.779h-355.803c-16.42 0-29.779 13.359-29.779 29.779v127.588c0 4.143 3.358 7.5 7.5 7.5s7.5-3.357 7.5-7.5v-127.588c0-8.149 6.63-14.779 14.779-14.779h355.803c8.148 0 14.778 6.63 14.778 14.779v30.112h-13.612v-23.779c0-4.143-3.357-7.5-7.5-7.5h-343.135c-4.142 0-7.5 3.357-7.5 7.5v251.478c0 4.143 3.358 7.5 7.5 7.5h297.558c.079 8.394-.193 9.893.307 13.612h-318.978v-121.348c0-4.143-3.358-7.5-7.5-7.5s-7.5 3.357-7.5 7.5v121.349h-6.775c-8.829 0-16.012 7.183-16.012 16.012v20.107c0 8.829 7.183 16.012 16.012 16.012h365.73c1.395 3.729 3.224 7.287 5.445 10.605-20.8 8.358-35.531 28.723-35.531 52.477v68.708c0 10.669 8.681 19.35 19.351 19.35h118.359c10.303 0 18.685-8.382 18.685-18.685v-69.373c0-23.754-14.731-44.119-35.531-52.477 11.15-16.656 8.271-32.31 8.715-36.304 14.91-5.88 22.015-18.05 22.015-30.8v-25.91c0-32.845-26.722-59.566-59.566-59.566h-5.534v-29.249h57.781zm-349.298 90.481v-36.675c0-15.389 8.383-29.142 21.714-36.225 8.528 7.652 19.788 12.317 32.12 12.317s23.592-4.665 32.12-12.317c13.332 7.083 21.714 20.836 21.714 36.225v36.675zm3.517-114.453v-44.467c0-21.203 17.25-38.453 38.454-38.453h23.729c21.204 0 38.454 17.25 38.454 38.453v44.467c0 1.809-.849 3.42-2.167 4.466v-33.486c0-2.068-.854-4.045-2.361-5.463s-3.532-2.142-5.596-2.023c-10.608.65-19.374-2.74-26.792-10.359-2.729-2.802-7.156-3.038-10.165-.537-8.447 7.015-22.438 10.474-44.03 10.884-4.086.078-7.357 3.412-7.357 7.499v33.486c-1.32-1.047-2.169-2.658-2.169-4.467zm17.167 5.719v-27.505c17.888-.964 30.854-4.222 40.602-10.229 7.528 6.096 16.129 9.575 25.7 10.396v27.338c0 18.279-14.872 33.15-33.151 33.15s-33.151-14.87-33.151-33.15zm101.985 108.734v-36.675c0-20.026-10.401-38.015-27.135-48.03 1.656-2.864 3.027-5.91 4.072-9.104 10.876-.605 19.546-9.619 19.546-20.644v-44.467c0-29.475-23.979-53.453-53.454-53.453h-7.839c1.769-3.094 1.132-7.1-1.697-9.467-3.176-2.656-7.907-2.235-10.564.94l-4.257 5.089-3.115-2.956c-3.005-2.853-7.752-2.728-10.603.278-1.375 1.449-2.058 3.305-2.059 5.156-.001 1.132.263 2.26.769 3.297-21.868 6.704-37.816 27.079-37.816 51.114v44.467c0 11.025 8.67 20.039 19.546 20.644 1.044 3.195 2.415 6.241 4.072 9.104-16.733 10.015-27.135 28.004-27.135 48.03v36.675h-65.233v-236.476h328.135v16.279h-60.26c-6.683 0-12.119 5.437-12.119 12.119v43.436l-21.904 12.646c-3.738 2.157-6.061 6.179-6.061 10.495s2.322 8.338 6.06 10.495l21.905 12.646v15.761c0 6.683 5.437 12.119 12.119 12.119h60.26v33.276c-22.254 8.64-38.078 30.27-38.078 55.54v1.665h-87.155zm-253.29 65.743c-.558 0-1.012-.454-1.012-1.012v-20.107c0-.558.454-1.012 1.012-1.012h346.866c4.43 5.95 9.489 9.025 15.594 11.432.027 7.281-.062 8.043.093 10.698h-362.553zm477.038 78.082v69.373c0 2.031-1.653 3.685-3.685 3.685h-118.359c-2.399 0-4.351-1.951-4.351-4.35v-68.708c0-22.906 18.635-41.541 41.541-41.541h43.312c22.907 0 41.542 18.635 41.542 41.541zm-36.558-56.309c-3.469-.305-48.413-.427-53.278 0-11.17-12.033-9.604-26.611-9.742-27.42 23.674 6.584 48.026 6.879 72.762 0-.186 1.095 1.639 15.158-9.742 27.42zm31.756-89.181v25.91c0 7.147-4.323 13.527-11.015 16.254-31.438 12.811-63.321 12.811-94.762 0-6.691-2.727-11.015-9.106-11.015-16.254v-25.91c0-24.574 19.992-44.566 44.566-44.566h27.658c24.576-.001 44.568 19.992 44.568 44.566zm-65.1-59.567c-5.823.065-8.572-.188-13.612.36v-29.609h13.612z"/></g></g></svg>